<svg width="60" height="60" viewBox="0 0 60 60" fill="none" xmlns="http://www.w3.org/2000/svg">
<path id="Vector" d="M51.0321 8.70059C45.4322 3.0873 37.9746 0 30.0491 0C13.6904 0 0.378934 13.3115 0.378934 29.6702C0.378934 34.8959 1.74216 40.0013 4.33496 44.5053L0.125 59.875L15.8556 55.7452C20.1858 58.1108 25.064 59.3538 30.0358 59.3538H30.0491C46.3945 59.3538 60 46.0423 60 29.6836C60 21.7581 56.632 14.3139 51.0321 8.70059ZM30.0491 54.3553C25.612 54.3553 21.2684 53.1658 17.4861 50.9205L16.5906 50.3859L7.26189 52.8317L9.74777 43.7301L9.15971 42.7946C6.68719 38.8653 5.39079 34.3346 5.39079 29.6702C5.39079 16.078 16.457 5.01186 30.0625 5.01186C36.6514 5.01186 42.8394 7.57793 47.4904 12.2423C52.1414 16.9067 55.0015 23.0946 54.9881 29.6836C54.9881 43.2891 43.6413 54.3553 30.0491 54.3553ZM43.5745 35.8849C42.8394 35.5107 39.1908 33.7198 38.5092 33.4792C37.8275 33.2253 37.333 33.105 36.8385 33.8534C36.344 34.6019 34.9273 36.2591 34.4863 36.767C34.0586 37.2615 33.6176 37.3283 32.8825 36.9541C28.5255 34.7756 25.6654 33.0649 22.792 28.1332C22.0302 26.8235 23.5538 26.917 24.9705 24.0837C25.211 23.5891 25.0907 23.1615 24.9036 22.7873C24.7165 22.413 23.233 18.7644 22.6182 17.2809C22.0168 15.8375 21.402 16.0379 20.9476 16.0112C20.5199 15.9845 20.0254 15.9845 19.5309 15.9845C19.0364 15.9845 18.2345 16.1716 17.5529 16.9067C16.8713 17.6551 14.9601 19.446 14.9601 23.0946C14.9601 26.7433 17.6197 30.2716 17.9806 30.7661C18.3548 31.2606 23.2063 38.745 30.6506 41.966C35.355 43.9974 37.1994 44.1712 39.5516 43.8237C40.9817 43.6098 43.9353 42.0328 44.5501 40.2953C45.1649 38.5579 45.1649 37.0744 44.9778 36.767C44.804 36.4329 44.3095 36.2458 43.5745 35.8849Z" fill="#F2F2F2"/>
</svg>
